<svg width="293" height="117" viewBox="0 0 293 117" fill="none" xmlns="http://www.w3.org/2000/svg">
<path fill-rule="evenodd" clip-rule="evenodd" d="M32 57.5802C32 71.6491 32.0293 83.2362 32.0644 83.3301C32.1225 83.483 32.7137 83.5011 37.6455 83.5011H43.1621V73.1364V62.7716H45.4353H47.7079L48.009 63.1765C48.1742 63.3994 48.347 63.5976 48.3936 63.6177C48.4395 63.6371 48.4778 63.7187 48.4778 63.7984C48.4778 63.8781 48.597 64.0394 48.7431 64.156C48.8898 64.2726 49.0091 64.4145 49.0091 64.4708C49.0091 64.5278 49.1086 64.6911 49.231 64.8336C49.3529 64.9761 49.5557 65.2307 49.6826 65.3991C49.8089 65.5675 49.9722 65.7703 50.0456 65.85C50.1189 65.9303 50.1782 66.0404 50.1782 66.0955C50.1782 66.1512 50.2981 66.2872 50.4442 66.3993C50.5903 66.5107 50.7102 66.6558 50.7102 66.7226C50.7102 66.7886 50.8173 66.9648 50.9494 67.1145C51.2868 67.4986 51.4724 67.737 51.7696 68.1697C51.9119 68.3777 52.1147 68.6264 52.2199 68.7223C52.3252 68.8182 52.4106 68.9309 52.4106 68.9717C52.4106 69.041 53.0261 69.8857 53.1639 70.0056C53.1984 70.0347 53.2698 70.1377 53.3234 70.2336C53.4356 70.4351 53.9835 71.1509 54.2183 71.4029C54.3056 71.4975 54.4689 71.7197 54.5805 71.8965C54.6915 72.074 54.8472 72.2573 54.9256 72.3053C55.0041 72.3526 55.0685 72.4575 55.0685 72.5391C55.0685 72.6201 55.1048 72.703 55.1489 72.7225C55.1935 72.7425 55.3951 72.977 55.5979 73.2446C55.8007 73.5115 55.9927 73.7544 56.0252 73.7842C56.0571 73.814 56.1732 73.9837 56.2836 74.1619C56.3939 74.34 56.5483 74.5246 56.6267 74.5726C56.7052 74.6198 56.7696 74.7248 56.7696 74.8064C56.7696 74.8874 56.8053 74.9703 56.85 74.9897C56.9176 75.0202 57.2263 75.403 57.7786 76.1409C57.8373 76.2199 58.0172 76.4337 58.1779 76.6157C58.3387 76.7977 58.47 76.9953 58.47 77.0536C58.47 77.1126 58.59 77.2732 58.736 77.4106C58.8821 77.5479 59.002 77.6911 59.002 77.7273C59.002 77.7643 59.0613 77.8575 59.1347 77.9353C59.208 78.013 59.3394 78.1879 59.4268 78.3246C59.5148 78.4606 59.7183 78.7172 59.879 78.8934C60.0398 79.0702 60.1711 79.2626 60.1711 79.3209C60.1711 79.3799 60.2911 79.5405 60.4371 79.6778C60.5832 79.8152 60.7025 79.9583 60.7025 79.9946C60.7025 80.0315 60.7624 80.1294 60.8358 80.2123C61.1445 80.5621 61.2344 80.6904 61.2344 80.7823C61.2344 80.8361 61.3537 80.9708 61.4998 81.0823C61.6465 81.1937 61.7657 81.3362 61.7657 81.3984C61.7657 81.5143 62.1242 81.9827 62.6427 82.5443C62.8035 82.7186 62.9349 82.9 62.9349 82.9486C62.9349 82.9965 63.0242 83.141 63.1339 83.2686L63.3322 83.5011H69.7246C75.6526 83.5011 76.117 83.4882 76.117 83.3191C76.117 83.1176 75.6851 82.4232 75.5588 82.4219C75.5148 82.4219 75.4791 82.3565 75.4791 82.2775C75.4791 82.1984 75.3356 82.0034 75.1602 81.8447C74.9848 81.686 74.8413 81.5014 74.8413 81.434C74.8413 81.3673 74.722 81.2002 74.5753 81.0622C74.4292 80.9249 74.31 80.7655 74.31 80.7085C74.31 80.6508 74.2723 80.588 74.2258 80.5679C74.1799 80.5485 73.977 80.3153 73.7742 80.0497C73.572 79.7847 73.2984 79.4453 73.167 79.295C73.0356 79.1454 72.9278 78.9879 72.9278 78.9458C72.9278 78.9031 72.8085 78.747 72.6618 78.5986C72.5158 78.4503 72.3952 78.2896 72.3933 78.243C72.3914 78.1957 72.2479 78.015 72.0744 77.842C71.9009 77.669 71.7586 77.4844 71.7586 77.4319C71.7586 77.3795 71.6387 77.224 71.4927 77.0867C71.3466 76.9493 71.2267 76.7893 71.2267 76.7317C71.2267 76.674 71.0832 76.4972 70.9078 76.3385C70.7324 76.1797 70.5889 75.9951 70.5889 75.9277C70.5889 75.861 70.4696 75.6939 70.3235 75.5559C70.1775 75.4186 70.0575 75.2761 70.0575 75.2391C70.0575 75.2022 69.9976 75.1083 69.9249 75.0293C69.8515 74.9509 69.6723 74.7313 69.5262 74.5421C69.3802 74.353 69.1295 74.044 68.9694 73.8561C68.8099 73.6682 68.6779 73.4797 68.6773 73.4383C68.6766 73.3962 68.5561 73.2407 68.41 73.0923C68.264 72.944 68.144 72.7833 68.1434 72.7367C68.1434 72.6894 67.9999 72.4951 67.8245 72.3053C67.6497 72.1155 67.5062 71.927 67.5062 71.8861C67.5062 71.8453 67.3869 71.6989 67.2402 71.5616C67.0942 71.4236 66.9749 71.2688 66.9749 71.2163C66.9749 71.1639 66.8327 70.9792 66.6585 70.8063C66.485 70.6327 66.3415 70.4344 66.3396 70.3651C66.3383 70.2958 66.3007 70.2233 66.2573 70.2032C66.1629 70.1611 65.6297 69.5184 65.3267 69.0831C65.21 68.9147 65.0072 68.653 64.8771 68.5008C64.4561 68.0104 64.4236 67.9644 64.4236 67.8659C64.4236 67.8121 64.3037 67.6774 64.1576 67.5653C64.0115 67.4539 63.8916 67.3056 63.8916 67.235C63.8916 67.1644 63.7481 66.9609 63.5727 66.7828C63.3973 66.6047 63.2538 66.4246 63.2538 66.3825C63.2538 66.3397 63.1345 66.1927 62.9885 66.0553C62.8424 65.9173 62.7225 65.7625 62.7225 65.7101C62.7225 65.6576 62.5802 65.473 62.4067 65.3C62.2326 65.1264 62.0891 64.945 62.0878 64.8971C62.0859 64.8485 61.9175 64.6295 61.7134 64.4112C61.5093 64.1923 61.3422 63.9804 61.3416 63.9403C61.3409 63.8995 61.281 63.8016 61.2076 63.7213C61.1343 63.6416 60.9091 63.3585 60.7069 63.093C60.5041 62.8274 60.3006 62.5935 60.2547 62.5734C60.2088 62.554 60.1711 62.4724 60.1711 62.3927C60.1711 62.313 60.0519 62.1517 59.9052 62.0351C59.7591 61.9185 59.6398 61.7902 59.6398 61.7494C59.6398 61.6166 59.9409 61.3679 60.1016 61.3679C60.1884 61.3679 60.2758 61.329 60.2949 61.2811C60.3147 61.2338 60.6533 61.031 61.0482 60.8308C61.443 60.6313 61.7657 60.4273 61.7657 60.378C61.7657 60.3288 61.8352 60.2886 61.9201 60.2886C62.0049 60.2886 62.1121 60.2265 62.1593 60.1507C62.2058 60.0755 62.3646 59.9356 62.5126 59.8404C63.132 59.4413 64.7616 57.8704 65.2744 57.1773C65.4205 56.981 65.6705 56.6649 65.83 56.4757C65.9901 56.2865 66.1215 56.0708 66.1228 55.997C66.1234 55.9225 66.1719 55.8616 66.2306 55.8616C66.2892 55.8616 66.3371 55.7923 66.3371 55.7074C66.3371 55.6226 66.3983 55.4891 66.4736 55.4107C66.6356 55.2423 66.9749 54.531 66.9749 54.3606C66.9749 54.2959 67.0189 54.2421 67.0725 54.2421C67.1261 54.2421 67.2039 54.0879 67.2447 53.8988C67.2855 53.7096 67.4035 53.4026 67.5062 53.2166C67.6089 53.0307 67.7288 52.7114 67.7716 52.5073C67.8143 52.3039 67.8876 52.0882 67.9336 52.0292C67.9801 51.9696 68.0522 51.6781 68.0943 51.3814C68.1364 51.0841 68.2072 50.7926 68.2518 50.7336C68.5886 50.2841 68.5861 44.3613 68.2493 43.9318C68.2027 43.8722 68.1307 43.5444 68.0892 43.203C68.0471 42.8616 67.975 42.5818 67.9285 42.5818C67.8819 42.5818 67.8117 42.3874 67.7722 42.1503C67.7326 41.9126 67.6567 41.7182 67.6032 41.7182C67.5496 41.7182 67.5062 41.5971 67.5062 41.4481C67.5062 41.2998 67.4584 41.1786 67.3997 41.1786C67.3417 41.1786 67.2919 41.1177 67.29 41.0432C67.2881 40.9694 67.1937 40.7142 67.0808 40.4764C66.9679 40.2393 66.8741 39.9841 66.8722 39.9096C66.8703 39.8357 66.8205 39.7749 66.7619 39.7749C66.7038 39.7749 66.656 39.7062 66.656 39.622C66.656 39.5378 66.6196 39.4529 66.5763 39.4328C66.5322 39.4134 66.3779 39.1659 66.2325 38.8841C66.0877 38.6023 65.932 38.3711 65.8874 38.3711C65.8421 38.3711 65.8051 38.2985 65.8051 38.2091C65.8051 38.1204 65.7605 38.0472 65.7063 38.0472C65.6514 38.0472 65.58 37.9604 65.5468 37.8548C65.4932 37.6825 65.2489 37.3903 64.2201 36.2657C63.8604 35.8725 62.88 35.0084 62.6364 34.8697C62.5388 34.814 62.378 34.6929 62.2792 34.5996C62.1797 34.507 61.8684 34.3094 61.5865 34.1604C61.3052 34.0121 61.059 33.854 61.0392 33.8099C61.0201 33.7652 60.9359 33.729 60.853 33.729C60.7707 33.729 60.7025 33.6804 60.7025 33.6208C60.7025 33.5612 60.6521 33.5126 60.5908 33.5126C60.476 33.5126 59.6284 33.157 59.2954 32.9691C59.194 32.9121 59.0384 32.8648 58.9503 32.8648C58.8617 32.8648 58.789 32.8208 58.789 32.7663C58.789 32.7126 58.5861 32.6342 58.3374 32.5921C58.0886 32.5506 57.8341 32.4748 57.7716 32.4237C57.7085 32.3725 57.3124 32.298 56.8908 32.2578C56.4698 32.2183 56.0999 32.1438 56.0686 32.0933C56.038 32.0428 50.61 32.0013 44.0066 32.0013H32V57.5802ZM85.8968 36.7509V41.5025H87.7574H89.6179V57.7512V73.9999H87.7574H85.8968V78.7508V83.5011H95.1071C103.754 83.5011 104.326 83.4895 104.459 83.312C104.675 83.0224 104.671 74.3743 104.455 74.1541C104.335 74.0329 103.919 73.9999 102.488 73.9999H100.673V57.7512V41.5025H102.488C103.926 41.5025 104.335 41.4701 104.456 41.3471C104.585 41.2156 104.605 40.4816 104.581 36.6233L104.553 32.0551L95.2251 32.0279L85.8968 32V36.7509ZM114.068 37.0755V42.1503H120.446H126.825V62.655C126.825 73.9325 126.854 83.2362 126.889 83.3301C126.947 83.483 127.533 83.5011 132.417 83.5011H137.88V62.8254V42.1503H144.365H150.85V37.0755V32.0013H132.459H114.068V37.0755ZM158.787 32.0732C158.698 32.1632 158.693 41.7455 158.781 41.9793C158.839 42.1322 159.505 42.1503 165.212 42.1503H171.579L171.606 62.7989L171.632 83.4474L177.134 83.4752L182.635 83.5031V62.8267V42.1503H189.12H195.604V37.0755V32.0013H177.231C167.126 32.0013 158.826 32.0337 158.787 32.0732ZM220.798 32.2708C220.798 32.4191 220.763 32.5409 220.718 32.5409C220.626 32.5409 220.417 33.0002 220.315 33.4316C220.276 33.5949 220.202 33.729 220.15 33.729C220.099 33.729 220.027 33.9233 219.989 34.1604C219.951 34.3981 219.891 34.5925 219.854 34.5925C219.773 34.5925 219.561 35.077 219.464 35.4832C219.425 35.6464 219.355 35.7799 219.308 35.7799C219.261 35.7799 219.19 35.9742 219.151 36.212C219.111 36.4497 219.047 36.6441 219.007 36.6441C218.932 36.6441 218.566 37.4402 218.566 37.6041C218.566 37.6559 218.495 37.8379 218.407 38.0083C218.32 38.178 218.248 38.4022 218.248 38.5065C218.248 38.6101 218.199 38.695 218.141 38.695C218.082 38.695 218.035 38.7921 218.035 38.9113C218.035 39.0299 217.987 39.1271 217.929 39.1271C217.872 39.1271 217.794 39.3214 217.757 39.5591C217.719 39.7962 217.647 39.9906 217.597 39.9906C217.547 39.9906 217.475 40.1849 217.438 40.4227C217.4 40.6604 217.328 40.8547 217.277 40.8547C217.226 40.8547 217.184 40.9273 217.184 41.0167C217.184 41.1054 217.137 41.1786 217.079 41.1786C217.021 41.1786 216.943 41.373 216.906 41.6101C216.869 41.8478 216.8 42.0421 216.754 42.0421C216.707 42.0421 216.638 42.1873 216.6 42.3647C216.561 42.5422 216.486 42.7152 216.432 42.7489C216.378 42.7832 216.334 42.905 216.334 43.0203C216.334 43.1356 216.286 43.2296 216.229 43.2296C216.171 43.2296 216.093 43.4239 216.055 43.6616C216.018 43.8994 215.948 44.0937 215.9 44.0937C215.851 44.0937 215.781 44.2634 215.742 44.4714C215.703 44.6793 215.63 44.849 215.578 44.849C215.526 44.849 215.483 44.9164 215.483 44.9987C215.483 45.081 215.412 45.2876 215.324 45.458C215.237 45.6277 215.166 45.8518 215.165 45.9561C215.164 46.0598 215.118 46.1446 215.063 46.1446C215.007 46.1446 214.93 46.315 214.891 46.523C214.853 46.7303 214.779 46.9006 214.727 46.9006C214.675 46.9006 214.633 46.966 214.633 47.0457C214.633 47.1772 214.443 47.6521 214.214 48.0919C214.167 48.1826 214.095 48.4139 214.053 48.6043C214.012 48.7954 213.934 48.9522 213.88 48.9522C213.826 48.9522 213.782 49.0733 213.782 49.2217C213.782 49.3707 213.734 49.4918 213.676 49.4918C213.618 49.4918 213.57 49.5527 213.569 49.6266C213.569 49.701 213.502 49.8921 213.42 50.0515C213.338 50.2109 213.239 50.4901 213.199 50.6721C213.16 50.8541 213.084 51.0031 213.03 51.0031C212.976 51.0031 212.932 51.1249 212.932 51.2732C212.932 51.4216 212.884 51.5434 212.825 51.5434C212.767 51.5434 212.719 51.6036 212.719 51.6781C212.718 51.7526 212.651 51.9437 212.569 52.1024C212.487 52.2618 212.389 52.5416 212.349 52.7237C212.309 52.9057 212.233 53.0547 212.179 53.0547C212.126 53.0547 212.082 53.1765 212.082 53.3248C212.082 53.4732 212.036 53.5943 211.98 53.5943C211.924 53.5943 211.847 53.7647 211.809 53.9726C211.77 54.1799 211.696 54.3503 211.644 54.3503C211.593 54.3503 211.549 54.4351 211.548 54.5394C211.547 54.6431 211.404 55.0195 211.231 55.3757C211.058 55.732 210.916 56.1091 210.915 56.2127C210.913 56.3163 210.869 56.4019 210.815 56.4019C210.762 56.4019 210.686 56.5962 210.647 56.8333C210.607 57.071 210.543 57.2654 210.504 57.2654C210.419 57.2654 210.208 57.7421 210.11 58.1561C210.071 58.3193 210.002 58.4528 209.958 58.4528C209.913 58.4528 209.846 58.6471 209.809 58.8849C209.771 59.1226 209.705 59.3169 209.661 59.3169C209.569 59.3169 209.361 59.7782 209.259 60.2077C209.22 60.3709 209.146 60.5044 209.095 60.5044C209.043 60.5044 208.97 60.6987 208.933 60.9364C208.896 61.1735 208.835 61.3679 208.798 61.3679C208.717 61.3679 208.505 61.8531 208.408 62.2586C208.37 62.4218 208.299 62.5559 208.252 62.5559C208.206 62.5559 208.135 62.7503 208.095 62.9874C208.056 63.2251 207.991 63.4201 207.953 63.4201C207.873 63.4214 207.619 63.9422 207.613 64.1158C207.611 64.178 207.517 64.4235 207.404 64.6613C207.291 64.8984 207.197 65.1782 207.195 65.2819C207.193 65.3855 207.144 65.471 207.085 65.471C207.027 65.471 206.979 65.5682 206.979 65.6867C206.979 65.8053 206.932 65.9024 206.874 65.9024C206.816 65.9024 206.738 66.0968 206.701 66.3345C206.663 66.5723 206.592 66.7666 206.542 66.7666C206.491 66.7666 206.419 66.9609 206.382 67.198C206.344 67.4358 206.272 67.6301 206.221 67.6301C206.17 67.6301 206.128 67.7027 206.128 67.7921C206.128 67.8815 206.081 67.954 206.024 67.954C205.966 67.954 205.888 68.1484 205.85 68.3861C205.813 68.6232 205.743 68.8175 205.694 68.8175C205.646 68.8175 205.573 69.0002 205.533 69.2224C205.493 69.4452 205.431 69.6519 205.395 69.6817C205.244 69.8093 204.959 70.4351 204.959 70.643C204.959 70.7674 204.913 70.8691 204.858 70.8691C204.802 70.8691 204.723 71.0511 204.683 71.274C204.643 71.4968 204.578 71.7028 204.539 71.7326C204.423 71.8227 204.109 72.5631 204.109 72.7477C204.109 72.8429 204.063 72.9207 204.007 72.9207C203.951 72.9207 203.874 73.0904 203.836 73.2983C203.798 73.5063 203.724 73.676 203.671 73.676C203.62 73.676 203.577 73.7434 203.577 73.8257C203.577 73.9079 203.505 74.1146 203.418 74.2849C203.331 74.4547 203.259 74.6788 203.259 74.7831C203.259 74.8867 203.216 74.9716 203.164 74.9716C203.112 74.9716 203.038 75.142 203 75.3499C202.961 75.5572 202.884 75.7276 202.828 75.7276C202.773 75.7276 202.727 75.8494 202.727 75.9977C202.727 76.1461 202.679 76.2672 202.621 76.2672C202.564 76.2672 202.486 76.4615 202.449 76.6993C202.411 76.937 202.343 77.1314 202.296 77.1314C202.25 77.1314 202.181 77.2771 202.142 77.4553C202.103 77.6334 202.028 77.7792 201.974 77.7792C201.92 77.7792 201.876 77.9003 201.876 78.0486C201.876 78.1976 201.829 78.3188 201.77 78.3188C201.711 78.3188 201.663 78.3797 201.663 78.4535C201.663 78.528 201.595 78.7191 201.513 78.8785C201.432 79.0378 201.332 79.317 201.293 79.4991C201.254 79.6811 201.177 79.8301 201.124 79.8301C201.07 79.8301 201.026 79.9519 201.026 80.1002C201.026 80.2486 200.98 80.3703 200.924 80.3703C200.869 80.3703 200.791 80.5401 200.753 80.748C200.714 80.9559 200.641 81.1257 200.589 81.1257C200.537 81.1257 200.494 81.2112 200.494 81.3148C200.493 81.4185 200.422 81.6426 200.334 81.813C200.247 81.9834 200.175 82.1894 200.175 82.2716C200.175 82.3539 200.129 82.4213 200.074 82.4213C200.018 82.4213 199.941 82.5916 199.902 82.7996C199.864 83.0069 199.796 83.1772 199.75 83.1772C199.705 83.1772 199.634 83.3593 199.593 83.5821C199.552 83.8043 199.479 84.011 199.432 84.0408C199.385 84.0706 199.33 84.2163 199.309 84.3647L199.272 84.6348H209.052H218.832L218.866 84.3919C218.885 84.2584 218.944 84.1489 218.998 84.1489C219.051 84.1489 219.126 83.9546 219.163 83.7169C219.201 83.4798 219.272 83.2854 219.322 83.2854C219.373 83.2854 219.445 83.0911 219.482 82.8533C219.52 82.6156 219.592 82.4213 219.643 82.4213C219.694 82.4213 219.736 82.3487 219.736 82.2593C219.736 82.1706 219.783 82.0974 219.84 82.0974C219.898 82.0974 219.976 81.903 220.014 81.6659C220.051 81.4282 220.121 81.2339 220.169 81.2339C220.218 81.2339 220.291 81.0518 220.331 80.829C220.371 80.6061 220.435 80.3995 220.474 80.3703C220.59 80.2803 220.905 79.5399 220.905 79.3552C220.905 79.26 220.948 79.1823 221.002 79.1823C221.055 79.1823 221.131 78.9879 221.171 78.7508C221.21 78.5131 221.274 78.3181 221.313 78.3181C221.392 78.3168 221.647 77.796 221.652 77.6224C221.654 77.5602 221.749 77.3147 221.862 77.0769C221.975 76.8398 222.069 76.56 222.071 76.4564C222.073 76.3527 222.122 76.2672 222.181 76.2672C222.239 76.2672 222.287 76.17 222.287 76.0515C222.287 75.9329 222.33 75.8358 222.384 75.8358C222.437 75.8358 222.513 75.6414 222.552 75.4037C222.592 75.1659 222.667 74.9716 222.72 74.9716C222.773 74.9716 222.846 74.7773 222.884 74.5402C222.921 74.3024 222.982 74.1081 223.019 74.1081C223.1 74.1081 223.312 73.6235 223.408 73.2174C223.447 73.0541 223.516 72.9207 223.56 72.9207C223.605 72.9207 223.672 72.7263 223.709 72.4886C223.747 72.2509 223.813 72.0565 223.857 72.0565C223.949 72.0565 224.157 71.5953 224.259 71.1658C224.298 71.0025 224.366 70.8691 224.411 70.8691C224.456 70.8691 224.523 70.6748 224.56 70.437C224.597 70.1999 224.666 70.0056 224.712 70.0056C224.759 70.0056 224.884 69.7504 224.992 69.4388C225.101 69.1265 225.224 68.8234 225.267 68.7638C225.31 68.7042 225.379 68.4982 225.419 68.3051C225.46 68.1121 225.537 67.954 225.591 67.954C225.645 67.954 225.689 67.8866 225.689 67.8044C225.689 67.7221 225.76 67.5155 225.847 67.3457C225.935 67.1754 226.006 66.9512 226.007 66.8476C226.008 66.7433 226.055 66.6584 226.114 66.6584C226.172 66.6584 226.221 66.5736 226.221 66.4693C226.221 66.3656 226.293 66.1415 226.38 65.9711C226.467 65.8014 226.539 65.5947 226.539 65.5125C226.539 65.4302 226.585 65.3628 226.64 65.3628C226.696 65.3628 226.774 65.1925 226.812 64.9852C226.85 64.7772 226.92 64.6069 226.967 64.6069C227.013 64.6069 227.084 64.4125 227.124 64.1754C227.163 63.9377 227.239 63.7433 227.293 63.7433C227.346 63.7433 227.39 63.6779 227.39 63.5982C227.39 63.4667 227.58 62.9919 227.808 62.552C227.855 62.4614 227.928 62.2301 227.969 62.0396C228.01 61.8485 228.088 61.6918 228.142 61.6918C228.196 61.6918 228.24 61.5706 228.24 61.4223C228.24 61.2739 228.287 61.1522 228.345 61.1522C228.403 61.1522 228.48 60.9578 228.518 60.7201C228.556 60.483 228.624 60.2886 228.67 60.2886C228.716 60.2886 228.786 60.1429 228.825 59.9647C228.863 59.7866 228.939 59.6408 228.993 59.6408C229.046 59.6408 229.09 59.5191 229.09 59.3707C229.09 59.2224 229.138 59.1006 229.197 59.1006C229.255 59.1006 229.303 59.0222 229.303 58.9257C229.303 58.7819 229.332 58.7747 229.463 58.8849C229.55 58.9587 229.622 59.0986 229.623 59.1952C229.623 59.2917 229.695 59.51 229.782 59.6797C229.87 59.8501 229.941 60.0567 229.941 60.139C229.941 60.2213 229.984 60.2886 230.038 60.2886C230.091 60.2886 230.167 60.483 230.206 60.7201C230.246 60.9578 230.317 61.1522 230.363 61.1522C230.41 61.1522 230.48 61.3219 230.518 61.5298C230.557 61.7378 230.634 61.9081 230.69 61.9081C230.745 61.9081 230.791 61.9755 230.791 62.0578C230.791 62.14 230.863 62.346 230.95 62.5164C231.037 62.6868 231.109 62.9077 231.11 63.0081C231.11 63.1085 231.153 63.2173 231.205 63.2504C231.257 63.2828 231.331 63.4434 231.37 63.6073C231.467 64.0141 231.679 64.4993 231.76 64.4993C231.797 64.4993 231.858 64.6937 231.895 64.9308C231.932 65.1685 232.01 65.3628 232.068 65.3628C232.126 65.3628 232.173 65.4406 232.173 65.5351C232.173 65.6304 232.245 65.8733 232.333 66.0754C232.42 66.2775 232.564 66.6079 232.652 66.81C232.739 67.0115 232.811 67.2544 232.811 67.3496C232.811 67.4442 232.859 67.5219 232.917 67.5219C232.976 67.5219 233.024 67.6074 233.024 67.7111C233.025 67.8147 233.096 68.0389 233.184 68.2092C233.271 68.3796 233.343 68.5856 233.343 68.6679C233.343 68.7502 233.386 68.8175 233.44 68.8175C233.493 68.8175 233.569 69.0119 233.609 69.2496C233.648 69.4874 233.719 69.6817 233.765 69.6817C233.813 69.6817 233.883 69.8151 233.922 69.9784C234.018 70.3846 234.23 70.8691 234.311 70.8691C234.348 70.8691 234.409 71.0634 234.447 71.3012C234.484 71.5383 234.556 71.7326 234.606 71.7326C234.657 71.7326 234.728 71.927 234.766 72.1647C234.803 72.4024 234.88 72.5968 234.938 72.5968C234.997 72.5968 235.044 72.7179 235.044 72.8663C235.044 73.0153 235.088 73.1364 235.141 73.1364C235.195 73.1364 235.271 73.2854 235.311 73.4674C235.351 73.6494 235.449 73.9293 235.531 74.0887C235.613 74.2474 235.68 74.4391 235.681 74.5143C235.682 74.6542 235.896 75.0908 236.011 75.188C236.047 75.2171 236.109 75.4238 236.149 75.6466C236.189 75.8694 236.262 76.0515 236.31 76.0515C236.359 76.0515 236.429 76.2458 236.466 76.4836C236.504 76.7207 236.582 76.915 236.64 76.915C236.697 76.915 236.744 76.9824 236.744 77.0646C236.744 77.1469 236.816 77.3536 236.903 77.5239C236.99 77.6936 237.062 77.9081 237.062 78.0001C237.063 78.092 237.105 78.2138 237.155 78.2702C237.205 78.3265 237.334 78.6278 237.441 78.9394C237.549 79.2516 237.675 79.5062 237.721 79.5062C237.767 79.5062 237.835 79.7005 237.873 79.9383C237.91 80.176 237.978 80.3703 238.022 80.3703C238.067 80.3703 238.135 80.5038 238.174 80.667C238.271 81.0732 238.483 81.5578 238.564 81.5578C238.601 81.5578 238.661 81.7521 238.698 81.9898C238.736 82.2269 238.808 82.4213 238.858 82.4213C238.908 82.4213 238.98 82.6156 239.017 82.8533C239.055 83.0911 239.133 83.2854 239.191 83.2854C239.248 83.2854 239.295 83.4066 239.295 83.5549C239.295 83.7039 239.343 83.825 239.401 83.825C239.459 83.825 239.537 84.0194 239.574 84.2571L239.642 84.6886H250.206H260.769V84.3647C260.769 84.1865 260.722 84.0408 260.663 84.0408C260.605 84.0408 260.557 83.9436 260.557 83.825C260.557 83.7065 260.509 83.6093 260.45 83.6093C260.392 83.6093 260.343 83.5238 260.341 83.4202C260.339 83.3165 260.244 83.0367 260.132 82.7996C260.019 82.5618 259.924 82.3163 259.922 82.2541C259.917 82.0805 259.662 81.5597 259.583 81.5584C259.544 81.5584 259.48 81.3634 259.441 81.1257C259.401 80.8886 259.335 80.6942 259.294 80.6942C259.253 80.6942 259.13 80.4267 259.02 80.1002C258.911 79.7737 258.782 79.5062 258.733 79.5062C258.686 79.5062 258.615 79.3118 258.578 79.0747C258.54 78.837 258.478 78.6427 258.439 78.6427C258.4 78.6427 258.279 78.3751 258.17 78.0486C258.061 77.7221 257.932 77.4553 257.883 77.4553C257.835 77.4553 257.765 77.2609 257.728 77.0232C257.69 76.7854 257.623 76.5911 257.578 76.5911C257.534 76.5911 257.465 76.4576 257.427 76.2944C257.328 75.8805 257.117 75.4037 257.032 75.4037C256.993 75.4037 256.929 75.2093 256.889 74.9716C256.85 74.7345 256.779 74.5402 256.733 74.5402C256.685 74.5402 256.616 74.3698 256.578 74.1619C256.539 73.9546 256.462 73.7842 256.406 73.7842C256.35 73.7842 256.305 73.7168 256.305 73.6345C256.305 73.5523 256.233 73.3456 256.146 73.1759C256.058 73.0055 255.987 72.7814 255.986 72.6778C255.986 72.5735 255.943 72.4886 255.891 72.4886C255.839 72.4886 255.766 72.3182 255.727 72.1109C255.688 71.903 255.611 71.7326 255.556 71.7326C255.5 71.7326 255.454 71.6115 255.454 71.4631C255.454 71.3148 255.41 71.193 255.356 71.193C255.303 71.193 255.226 71.044 255.187 70.862C255.148 70.6799 255.048 70.4001 254.966 70.2407C254.885 70.082 254.817 69.8909 254.817 69.8164C254.817 69.7419 254.769 69.6817 254.71 69.6817C254.651 69.6817 254.603 69.5599 254.603 69.4116C254.603 69.2632 254.559 69.1414 254.506 69.1414C254.452 69.1414 254.376 68.9924 254.336 68.8104C254.297 68.6284 254.198 68.3492 254.116 68.1898C254.034 68.0305 253.967 67.8394 253.966 67.7649C253.966 67.691 253.918 67.6301 253.86 67.6301C253.801 67.6301 253.753 67.509 253.753 67.36C253.753 67.2116 253.707 67.0905 253.652 67.0905C253.596 67.0905 253.519 66.9201 253.48 66.7122C253.442 66.5049 253.368 66.3345 253.316 66.3345C253.264 66.3345 253.221 66.2497 253.221 66.1454C253.221 66.0417 253.149 65.8176 253.062 65.6472C252.974 65.4775 252.903 65.2708 252.903 65.1886C252.903 65.1063 252.86 65.0389 252.809 65.0389C252.756 65.0389 252.682 64.8686 252.644 64.6613C252.606 64.4533 252.529 64.283 252.472 64.283C252.417 64.283 252.371 64.1981 252.37 64.0944C252.37 63.9901 252.298 63.766 252.211 63.5963C252.124 63.4259 252.052 63.2193 252.052 63.137C252.052 63.0547 252.01 62.9874 251.958 62.9874C251.906 62.9874 251.832 62.8176 251.794 62.6097C251.755 62.4018 251.684 62.232 251.636 62.232C251.588 62.232 251.518 62.0377 251.48 61.7999C251.442 61.5622 251.365 61.3679 251.307 61.3679C251.249 61.3679 251.202 61.2953 251.202 61.2059C251.202 61.1172 251.16 61.044 251.109 61.044C251.058 61.044 250.986 60.8496 250.949 60.6125C250.911 60.3748 250.84 60.1805 250.789 60.1805C250.739 60.1805 250.667 59.9861 250.63 59.7484C250.592 59.5113 250.514 59.3169 250.456 59.3169C250.399 59.3169 250.352 59.2437 250.352 59.155C250.352 59.0656 250.31 58.993 250.259 58.993C250.208 58.993 250.135 58.7987 250.098 58.561C250.061 58.3232 249.989 58.1289 249.938 58.1289C249.888 58.1289 249.817 57.9345 249.779 57.6975C249.742 57.4597 249.664 57.2654 249.606 57.2654C249.548 57.2654 249.501 57.1682 249.501 57.0497C249.501 56.9305 249.453 56.8333 249.395 56.8333C249.336 56.8333 249.288 56.7484 249.288 56.6448C249.287 56.5405 249.216 56.3163 249.128 56.1466C249.041 55.9763 248.969 55.7942 248.969 55.7424C248.969 55.5785 248.604 54.7824 248.529 54.7824C248.489 54.7824 248.424 54.588 248.385 54.3503C248.345 54.1125 248.274 53.9182 248.228 53.9182C248.181 53.9182 248.11 53.7848 248.071 53.6215C247.975 53.2153 247.763 52.7308 247.682 52.7308C247.645 52.7308 247.584 52.5365 247.547 52.2987C247.51 52.0616 247.437 51.8673 247.385 51.8673C247.333 51.8673 247.26 51.7332 247.221 51.5699C247.124 51.1644 246.912 50.6792 246.831 50.6792C246.794 50.6792 246.734 50.4849 246.696 50.2478C246.659 50.01 246.586 49.8157 246.535 49.8157C246.483 49.8157 246.409 49.6823 246.37 49.519C246.272 49.1044 246.061 48.6283 245.976 48.6283C245.937 48.6283 245.873 48.434 245.833 48.1962C245.794 47.9585 245.718 47.7641 245.665 47.7641C245.611 47.7641 245.567 47.6793 245.565 47.5756C245.564 47.4713 245.422 47.095 245.249 46.7387C245.076 46.3824 244.933 46.0378 244.932 45.9723C244.93 45.8596 244.709 45.3291 244.498 44.932C244.443 44.8283 244.398 44.6709 244.398 44.5809C244.398 44.4908 244.354 44.4176 244.301 44.4176C244.247 44.4176 244.17 44.2686 244.131 44.0859C244.091 43.9039 243.992 43.6247 243.911 43.4654C243.829 43.306 243.762 43.1149 243.761 43.041C243.761 42.9666 243.712 42.9057 243.654 42.9057C243.596 42.9057 243.548 42.7845 243.548 42.6362C243.548 42.4878 243.504 42.366 243.45 42.366C243.396 42.366 243.32 42.217 243.281 42.035C243.241 41.853 243.142 41.5731 243.06 41.4138C242.978 41.2551 242.911 41.064 242.911 40.9895C242.91 40.915 242.862 40.8547 242.804 40.8547C242.746 40.8547 242.698 40.7329 242.698 40.5846C242.698 40.4363 242.654 40.3145 242.599 40.3145C242.546 40.3145 242.47 40.1687 242.432 39.9899C242.365 39.6848 242.175 39.2074 241.946 38.7779C241.892 38.6742 241.847 38.5168 241.847 38.4268C241.847 38.3367 241.805 38.2635 241.752 38.2635C241.701 38.2635 241.627 38.0932 241.589 37.8852C241.55 37.6773 241.473 37.5076 241.417 37.5076C241.361 37.5076 241.316 37.4298 241.316 37.3353C241.316 37.24 241.249 37.0094 241.169 36.8222C241.088 36.635 240.944 36.3046 240.85 36.0876C240.755 35.8706 240.678 35.64 240.678 35.5745C240.678 35.5098 240.636 35.456 240.585 35.456C240.534 35.456 240.461 35.2617 240.424 35.0246C240.387 34.7868 240.309 34.5925 240.251 34.5925C240.194 34.5925 240.146 34.4979 240.146 34.3832C240.146 34.2679 240.102 34.1455 240.048 34.1118C239.994 34.0781 239.919 33.9052 239.88 33.7277C239.841 33.5502 239.773 33.4051 239.726 33.4051C239.679 33.4051 239.611 33.2107 239.574 32.973C239.537 32.7352 239.462 32.5409 239.408 32.5409C239.354 32.5409 239.296 32.4321 239.276 32.298L239.243 32.0551L230.021 32.0279L220.798 32V32.2708ZM53.0485 42.2579C53.0485 42.3175 53.2373 42.366 53.4675 42.366C53.6978 42.366 53.9127 42.4088 53.9446 42.4619C53.9772 42.5144 54.1711 42.5895 54.3764 42.6284C54.5818 42.6679 54.7496 42.7431 54.7496 42.7955C54.7496 42.848 54.8504 42.9238 54.9735 42.9633C55.4793 43.1266 56.7696 44.4597 56.7696 44.8186C56.7696 44.895 56.8149 44.9572 56.871 44.9572C56.9265 44.9572 57.0037 45.1276 57.0426 45.3362C57.0808 45.5448 57.1548 45.7417 57.2065 45.7748C57.2588 45.8071 57.3009 45.9522 57.3009 46.0974C57.3009 46.2425 57.3487 46.361 57.4074 46.361C57.4699 46.361 57.5133 46.7367 57.5133 47.2718C57.5133 47.7732 57.4655 48.2137 57.4074 48.25C57.3487 48.2869 57.3009 48.4599 57.3009 48.6348C57.3009 48.809 57.2531 48.9522 57.1944 48.9522C57.1363 48.9522 57.0885 49.0319 57.0885 49.129C57.0885 49.9595 55.1693 51.9664 54.1966 52.1536C54.0039 52.1912 53.7788 52.2754 53.6971 52.3408C53.5938 52.4237 51.9463 52.4723 48.3553 52.4976L43.1621 52.5339V47.3418V42.1503H48.1053C51.3302 42.1503 53.0485 42.1879 53.0485 42.2579Z" fill="#1CBC9C"/>
</svg>
